<?xml version="1.0" encoding="UTF-8"?>
<svg id="Camada_1" data-name="Camada 1" xmlns="http://www.w3.org/2000/svg" viewBox="0 0 2251.17 950.3">
  <defs>
    <style>
      .cls-1 {
        fill: #fff;
      }
    </style>
  </defs>
  <g>
    <g>
      <g>
        <polygon class="cls-1" points="1727.89 439.61 1696.84 505.62 1612.13 505.62 1612.13 439.61 1727.89 439.61"/>
        <polygon class="cls-1" points="1780.83 327.04 1749.77 393.06 1635.4 393.06 1635.4 327.04 1780.83 327.04"/>
        <polygon class="cls-1" points="1672.56 557.25 1642.6 620.91 1642.6 557.25 1672.56 557.25"/>
      </g>
      <path class="cls-1" d="M1625.32,393.05v-66.01h-157.89c16.69,7.99,31.99,19.06,46.6,33.45l7.29,7.17-7.3,7.19-53.75,52.91-7.07,6.95v20.64h93.87v10.08c0,14.19-.97,27.59-2.94,40.2h57.93v-66.01h-80.74v-46.56h104.01ZM1528.65,557.25c-6.48,13.48-14.66,25.51-24.52,36.04-11.65,12.41-25.54,22.47-41.44,29.97h169.83v-66.01h-103.87Z"/>
      <path class="cls-1" d="M1537,465.42c0,14.22-1.04,27.64-3.11,40.2-2.59,15.83-6.8,30.31-12.58,43.32-13.92,31.38-36.89,54.32-68.12,67.54-20.39,8.65-44.3,13.13-71.5,13.13-83.12,0-134.12-47.54-152.13-105.27.45-.18.92-.39,1.38-.59,40.67-18.19,64.95-54.86,64.95-98.11,0-24.7-7.66-47.44-22.08-65.76-.17-.22-.35-.44-.52-.64,27.07-23.49,65.08-38.55,114.32-38.55,25.64,0,47.02,3.88,65.59,11.12,20.69,8.04,37.93,20.25,53.75,35.85l-53.75,52.91c-19.03-19.48-38.49-27.94-65.59-27.94-52.05,0-77.85,42.32-77.85,84.21s25.79,83.79,77.85,83.79c32.17,0,56.71-13.11,65.59-33.85h-63.04l-.42-61.36h147.26Z"/>
      <path class="cls-1" d="M1534.46,501.81c.42-2.74.77-5.52,1.07-8.36-.32,2.82-.67,5.61-1.07,8.36ZM1536.34,484.34c.34-4.6.54-9.3.6-14.09-.08,4.79-.29,9.49-.6,14.09ZM1536.98,465.42c0,1.61-.02,3.22-.03,4.84.03-1.6.05-3.21.05-4.84h-.02ZM1536.98,465.42c0,1.61-.02,3.22-.03,4.84.03-1.6.05-3.21.05-4.84h-.02ZM1536.34,484.34c.34-4.6.54-9.3.6-14.09-.08,4.79-.29,9.49-.6,14.09ZM1534.46,501.81c.42-2.74.77-5.52,1.07-8.36-.32,2.82-.67,5.61-1.07,8.36Z"/>
      <path class="cls-1" d="M1265.89,366.13c-18.97-24.06-50.61-39.09-90.96-39.09h-119.34v296.22h82.53v-97.74h34.27c20.34,0,38.71-3.93,54.42-10.96,36.62-16.37,58.99-49.54,58.99-88.91,0-22.74-7.05-43.21-19.91-59.51ZM1165.62,462.45h-27.5v-72.36h27.5c22.43,0,38.08,13.97,38.08,36.39s-15.65,35.97-38.08,35.97Z"/>
    </g>
    <path class="cls-1" d="M2241.52,570.11c-7,26.5-19.28,44.3-30.73,44.3-8.05,0-11.23-5.73-11.23-18.45,0-7.62,1.07-17.59,2.96-30.51,1.69-13.57,2.76-25.02,2.76-34.99,0-44.08-19.92-54.89-79.49-57.21-.42,0-.42-.44,0-.44,55.96-3.59,118.7-30.51,118.7-87.52,0-38.58-32.85-61.26-93.47-61.26h-117.43l-1.69,7.2h40.49l-57.49,249.44c-6.13,17.52-14.64,29.68-23.11,32.9-1.47.56-2.95.85-4.41.85-1.78,0-3.32-.27-4.64-.85-4.66-2.02-6.59-7.69-6.59-17.6,0-7.62,1.05-17.59,2.96-30.51,1.69-13.57,2.74-25.02,2.74-34.99,0-44.08-19.92-54.89-79.48-57.21-.42,0-.42-.44,0-.44,55.96-3.59,118.7-30.51,118.7-87.52,0-38.58-32.85-61.26-93.47-61.26h-117.43l-1.69,7.2h40.48l-65.08,282.34h-40.48l-1.69,7.2h123.36l1.69-7.2h-40.47l31.78-138c66.99,1.49,82.46,6.57,82.46,40.07,0,6.78-.64,14.62-1.49,23.74-1.47,12.71-2.54,25.23-2.54,36.46,0,28.82,9.79,50.44,39.68,50.44,16.94,0,20.33-5.51,38.97-5.51h73.33l1.69-7.2h-40.48l31.8-138c66.97,1.49,82.44,6.57,82.44,40.07,0,6.78-.63,14.62-1.47,23.74-1.49,12.71-2.56,25.23-2.56,36.46,0,28.82,7.42,50.44,37.31,50.44,27.77,0,42.19-21.19,51.08-54.89l-6.78-1.27ZM1859.78,468.37l31.58-137.15h28.84c37.31,0,56.38,15.69,56.38,47.91,0,37.73-19.5,69.51-52.35,82.44-12.52,5.52-26.72,7.22-41.14,7.22l-23.31-.42ZM2083.2,468.37l31.58-137.15h28.82c37.31,0,56.38,15.69,56.38,47.91,0,37.73-19.5,69.51-52.35,82.44-12.5,5.52-26.7,7.22-41.12,7.22l-23.31-.42Z"/>
  </g>
  <g>
    <path class="cls-1" d="M397.57,180.4l64.23-35.2c28.54,19.84,58.29,38.19,85.7,59.6,5.99,4.68,23.9,17.94,25.25,24.75.32,1.6.13,3.24.16,4.85l-7.71-1.29-97.27-68.06-2.35-.65c.15,6.77-.21,13.58-.03,20.36.52,20.09,2.45,40.49,2.72,60.61.17,12.43.19,24.93-1.49,37.23-.71,1.59-3.64,1.79-5.2,1.79l-2.67-125.33-60.05,32.28c-3.67,11.37-.8,23.85-2.03,35.3-.57,5.33-4.73,12.48-6.43,3.93-.46-2.31-.72-7.8-.85-10.49-1.28-26.18,2.09-52.41,1.39-78.58l-14.02-6.44-3.33,140.66,18.61-25.05c1.07-1.22,2.51-1.21,3.88-.45,55.22,40.87,114.33,77.84,161.35,128.49l-95.18,147.67h18.33c4.08,4.59,2.39,10.76,3.69,16.31l.64,262.36c1.57.08,2.18-1.44,3.53-2.13,10.06-5.15,23.87-8.96,34.79-12.54,24.27-7.97,48.99-14.46,73.41-21.95l-7.1-137.34-49.96-9.37c-.86,31.22,1.41,62.48.7,93.7-.09,3.75-1.31,8.26-1.39,11.94-.42,17.98.97,36.04-1.42,53.91-.56,1.68-3.93,1.63-4.46.02-.33-16.42.1-32.85-.07-49.27-.8-79.28,2.05-159.32,0-238.67-.13-5.11-2.71-10.66.62-15.31-.05-1.37-7.09-1.18-5.32-2.99.44-.45,3.42-.42,3.87-.8s.88-4.72,2.52-5.1c38.61,8,74.03,26.15,109.66,42.25,10.21-4.87,19.84-10.96,29.93-16.03,35.69-17.95,71.46-32.31,101.7-59.63,12.39-11.19,27.1-27.48,27.69-44.94-.63-2.2-8.4,1.11-9.89,1.41-55.44,11.06-110.99,20.19-165.63,35.04-22.77,6.19-45.12,14.41-67.86,20.81-10.75,3.03-27.41,8.51-37.82,10.18-13.91,2.23-5.37-7.76,1.15-10.52-.79-1.89-5.09,1.5-5.99.67-.24-1.19.58-1.66,1.37-2.29,3.56-2.82,19.51-7.47,24.78-9.22,60.31-20.02,124.51-32.4,187.05-43.61,19.67-3.53,41.9-5.4,60.95-9.71,1.97-.45,2.99-.88,3.83-2.84.29-1.5-.66-.91-1.65-.99-2.25-.16-5.09-.12-7.37-.03-50,2.08-94.85,7.52-143.52,19.15-35.18,8.41-69.3,21.6-105.46,25.54-.88-2.71,1.98-3.5,2.54-5.15.28-.84-.06-2.56.17-2.81.16-.16,1.76.03,2.59-.39,1.2-.61,2.26-2.14,4.24-3.11,10.4-5.07,25.14-6.54,36.43-9.24l-2.62-72.31c-2-.79-3.72-2.05-5.56-3.1-15.33-8.77-35.88-16.4-50-26-3.34-2.27-4.66-5.36-1.33-8.47,3.09-1,20.35,8.24,24.23,10.23,10.46,5.36,20.26,12.17,31.63,15.68l-2.96-65.3,145.31-55.04c9.48-2.21,19.54,4.45,28.24,7.61l7.41,53.42c8.92,17.71,29.06,32.98,34.69,51.98,4.82,16.28,4.23,35.77,5.01,52.67-1.79.06-4.54.43-5.2-1.81l-4.88-35.12c-2.57-6.55-6.04-12.82-10.05-18.62-4.89-7.06-12.26-13.37-14.57-21.78-1.18.05-2.13-.62-1.95.95.36,3.06,1.59,6.7,1.97,10.04,1.87,16.29,5.26,41.58,4.03,57.35-.12,1.49-.91,7.31-2.38,7.64-5.75-2.83-6.1-11.95-6.9-17.75-1.3-9.5-1.23-19.21-3.41-28.59l-9.43-102.57-13.91-5.09,15.41,158.93,1,3.11c14.75-.23,30.51-2.67,45.28-1.4,4.54.39,8.85,1.7,10.15,6.52,5.54,20.49,6.84,36.83,9.58,57.76,10.73,82.21,24.61,163.96,35.16,246.18,2.51,19.57,6.46,42.54,7.42,61.91.11,2.12.39,9.56-1.3,10.69-5.52,1.83-6.09-5.12-7.16-8.89l-28.86-206.97c-5.35-2.42-48.76-25.2-50.67-23.16l30,251.33c6.55-1.33,13.8-3.99,20.41-4.59,7.13-.65,10.05-1.04,10.23,7.22l-59.74,14.66c-8.35-1.02-16.73-1.64-25.16-1.21-62.92,10.85-125.37,24.25-188.3,35.04-14.22,2.44-31.11,6.41-45.21,7.46-2.37.18-11.44,1.24-10.6-1.93,1.94-2.96,53-14.25,60.23-15.77,40.44-8.55,82.52-15.94,123.34-22.66,14.43-2.38,28.93-4.46,43.45-6.22-.44-1-3.31-1.01-4.45-1.21-24.9-4.38-50.1-8.56-75.14-11.38-40.87,9.1-80.33,23.32-120.79,33.88-11.46,2.99-24.98,7.08-36.65,8.09-1,.09-2.53-.71-2.98-.41l-1.1,120.25c-18.14,6.48-36.38,19.05-55.96,20.7-15.65,1.32-40.92-6.48-56.8-10.36-19.95-4.88-39.73-10.61-59.63-15.7l-1.89-1.5,4.6-72.19-.84-1.39c-82.04,10.76-163.51,25.07-245.32,37.2l-65.74-27.71c.12-3.23.28-6.75.71-9.94.13-.93-.39-1.15.97-.98l61.02,23.32,11.94-100.45c4.53-62.66,12.67-125.05,20.65-187.3,2.98-23.25,3.92-46.59,6.09-69.91,14.95-160.78,32.14-321.35,41.33-482.67l-48.5,56.17c-2.71,16.91-2.58,34.14-4.18,51.16-17.16,182.78-37.34,365.11-58.58,547.42-5.51,47.33-9.82,94.88-16.65,142.01-.45,3.13-.78,6.4-.77,9.57-4.29-1-5.21-8.06-5.81-11.85-5.08-31.85,6.71-80.3,11.07-113.23,21.48-162.24,38.87-326.91,54.09-489.91,1-10.77,2.45-19.69,2.7-30.64.22-9.6,2.3-17.14,3.3-26.7,2.97-28.53,4.09-57.34,6.77-85.89,8.57-11.63,19.41-21.5,28.91-32.43,9.59-11.05,17.94-23.35,27.98-34.02,1.79-1.9,6.7-7.59,9.19-7.21l242.49,131.55v46.33ZM166.9,215.74c-.2-14.35.56-28.69,1.35-42.99,2.62-47.77,6.69-95.53,9.81-143.26-.42-1.66-1.6-2.68-2.92-3.63-1.71-1.23-18.83-10.25-19.55-9.44l-11.36,186.88,22.69,12.45ZM187.57,227.07l11.19-187.59-12.19-7.06c-2.52.12-1.51,19.04-1.63,21.68-2.22,46.7-6.43,93.29-8.05,139.95-.22,6.31.52,13.16.03,19.37-.34,4.4-3.37,5.19,1.38,9.27,1.16.99,8.5,5.19,9.28,4.38ZM210.9,240.4c1.85-62.7,7.35-125.04,8.71-187.7-.63-4.78-9.05-6.89-12.69-8.96-1.62,18.01-1.76,36.3-2.65,54.36-1.81,36.88-3.74,73.75-5.33,110.67-.27,6.2-1.86,15.48-1.39,21.34.5,6.22,8.45,7.96,13.36,10.3ZM231.57,252.4l3.98-93.03c1.12-25.99,2.47-51.96,3.33-78,.19-5.8,1.5-12.13.73-18.01-.61-4.59-8.01-5.36-11.36-7.63-.72,6.3-.35,12.68-.68,18.99-2.04,39.52-3.19,79.15-5.3,118.7-.74,13.85-2.87,28.23-3.35,41.98-.08,2.31-.32,5.88-.04,8.03.65,4.9,9.36,6.1,12.69,8.97ZM251.57,263.07l8.04-188.37-.38-1.62-11.31-7.35-3.03,80.98c-1.2,31.96-3.28,64.05-4,96-.06,2.74-.48,14.14.86,15.53l9.82,4.83ZM274.9,275.73l6.04-189.7c.56-3.36-12.38-9.26-13.36-8.3-1.8,60.86-4.82,121.56-5.98,182.36-.05,2.82-2.01,6.12.67,8.61,2.31,2.14,7.96,2.79,10.25,4.42,1.53,1.09.26,3.03,2.38,2.61ZM299.57,287.74c1.21-12.97.34-26.01.65-39.03,1.1-46.84,2.07-93.96,4.69-140.65.15-2.63.42-8.68-.5-10.83s-14.85-8.86-15.5-8.17c-1.3,12.04-.42,24.24-.64,36.36-.62,34.37-1.72,68.93-2.67,103.33-.34,12.28,0,25.05-.67,37.33-.2,3.63-2.48,9.72-1.01,12.96,1.14,2.53,12.65,7.35,15.65,8.68ZM327.46,108.51l-14.55-7.44c-.66,57.5-3.71,114.81-3.98,172.36-.01,2.9-.79,5.96-.72,9.33.07,3.1,1.01,6.48,1.03,9.63l12.67,7.33,5.55-191.22ZM277.58,404.4c24.28-30.69,43.76-64.85,65.96-97.03,2.4-61.92,5.47-123.82,5.4-186.01l-.7-1.97-12.36-5.65c-1.47-.22-.78.22-.97.99-1.68,6.85-1.16,23.26-1.38,31.3-1.42,52.02-1.36,104.06-3.28,156.05-.14,3.9-1.29,8.17-.7,12.31l-20.66-8.66-1.37,50.3-8.3,14.37c-4.23-3.86-1.78-9.55-1.64-14.3.41-13.6.81-27.13,1.31-40.69.17-4.63,1.32-9.73.57-14.58l-15.91-7.09-6,110.66ZM351.58,301.07l14.3-18.7c1.14-30.25,3.08-60.72,3.72-90.94.35-16.66-.55-33.4-.06-50.05.08-2.75,1.27-5.65.7-8.64-.42-2.17-9.97-6.18-12.33-7.67l-6.33,176.01ZM140.91,512.41c.72-28.47,4.9-56.68,7.33-85.01,5.62-65.55,8.95-131.33,16.73-196.67.05-1-.17-1.92-.56-2.83-1.64-3.8-18.41-8.52-22.15-12.17l-26.68,294,25.34,2.67ZM593.58,400.4c35.01-7.23,69.28-17.65,104.54-23.79,7.48-1.3,15.09-1.86,22.5-3.53l-15.05-156.68-117.93,44.73,5.94,139.27ZM185.43,240.54l-12.19-6.78c-.65.46-.86.87-1,1.65-.62,3.66-.32,9.4-.67,13.33-7.71,88.2-15.6,176.44-22.66,264.67l.64,1.35,12.02,2.31,23.86-276.53ZM188.9,522.4l20.68-266.99c-.36-3.77-12.19-7.36-15.01-9.67l-23.55,272.22c1.1,3.22,14.65,2.78,17.89,4.44ZM213.56,527.74l17.69-261.34-12.68-7.34c-.33,0-.93,3.64-1,4.35-8.44,86.23-11.44,173.11-20.04,259.34l.06,1.63,15.96,3.36ZM460.91,313.74c-.7.62,11.87,12.09,13.01,13.32,5.12,5.54,9.55,11.78,14.64,17.35.74,1.2.73,5.78-1.3,5.31-31.27-26.47-58.72-57.08-91.35-81.98l-106.22,139.16.22,2.13c32.51,41.32,66.77,81.34,95.66,125.36-10.21,1.97-15.53-1.09-22.68-7.65-28.9-26.53-52.91-69.62-77.73-100.94-1.73-2.18-4.4-6.05-6.24-7.76-.65-.61-.95-1.22-2.02-.98l-2.68,44.99c-7.54,126.64-15.42,254.25-23.32,381.35-.07,1.18-.67,3.17.94,2.95,21.02-2.78,41.95-6.42,63.05-8.63l21.32-314.29c1.72-1.65,3.3,1.93,3.87,3.43,5.85,15.2,1.04,53.88.16,71.89-4.11,85.03-8.75,170.18-14.02,255.31-1.18,19.09-.86,38.62-4.51,57.36l104.83,22.31c.58-29.93.67-59.77.98-89.7,1.07-103.79-.21-207.73-.12-311.45l12.81-24.85-43.98,29.07c-2.48.88-4.22-2.54-5.85-4.06l118.84-162.34c1.02-1.03,2.62-.75,3.98-.67,6,.35,13.01,1.75,19.01,2.67.42-1.55-.36-1.12-.84-1.53-7.53-6.44-14.21-13.83-22.17-20.45-13.5-11.24-29.52-24.06-43.72-34.28-1.41-1.02-2.68-2.61-4.6-2.4ZM234.9,537.73c5.01-81.24,10.7-162.45,15.35-243.66.19-3.35,2.28-16.87.67-18.68-1.29-1.45-7.82-3.23-9.69-4.92-.94.55-1.15,1.5-1.47,2.44-2.77,8.15-1.73,31.16-2.18,41.15-3.03,68.27-11.21,136.34-14.01,204.65-.1,2.55-1.65,8.83-.33,11.01,2.14,2.59,7.6,1.75,9.66,3.01,1.88,1.15.56,4.17,2.01,4.98ZM242.24,847.74l32.56-559.61-12.88-6.4-30.32,473.56-2.69.84c-2.67-1.62-3.4-19.79-3.36-23.41.6-46.52,7.28-93.27,7.37-139.97l4.04-52.57c-.36-1.64-11.68-1.02-14-1.72l-4.71,59.62c-3.39,72.76-10.2,145.35-14.67,218-.67,10.87,3.2,25.79-10,30.33-1.16-1.58,1.77-25.62,2.02-29.64,4.9-77.72,8.43-155.57,13.98-233.35.99-13.84,3.99-29.84,4.05-43.35,0-1.79-.17-2.84-2.05-3.34l-14.36-1.7c-5.82,77-11.65,153.99-16.99,231.03-1.99,28.71-3.45,57.73-5.35,86.65-.08,1.22.07,2.48.02,3.7l67.34-8.67ZM815.57,525.74l-13.66-109.33c-11.25,17.25-25.3,32.36-40.23,46.46l3.87,37.76,50.02,25.11ZM740.9,472.41c-.99-1.02-9.45,4.46-11.08,5.25-14.91,7.24-29.96,12.51-44.93,20.4-13.96,7.36-27.46,15.74-41.23,23.46l16,234.46,1.01.99,102.55,15.46,1.07-.32c1.89-12.38-1.42-25.56-2.71-38.05l-20.68-261.66ZM586.79,497.85l-47.88-18.11,2.67,135.99,48,4.67-2.78-122.56ZM626.78,515.86c-.22-.25-5.09-1.46-6.33-2.01-9.34-4.11-18.38-8.99-27.54-13.45l4.62,120.28,38.04,5.72c.12-9.02-1.59-18.01-2.03-26.98-.47-9.52-.05-19.14-.65-28.69-1.04-16.67-3.59-33.58-4.59-50.02-.02-.32-1.36-4.67-1.52-4.86ZM138.86,523.79l-23.95-5.39c-1.15,2.95-.43,5.97-.68,9-3.28,40.1-8.76,79.98-12.66,120.01-5.81,59.76-8.53,121.22-16.76,180.57-1.22,8.76-2.61,17.67-5.23,26.1h2s-2.01,11.65-2.01,11.65l52.88-6.78,1.07-.93,27.4-329.29-1.13-1.56-12.23-1.44c.59,13.11-2.18,26.01-3.33,39.01-3.81,43.35-5.43,86.85-12.11,129.89-.61,3.94-1.16,8.83-2.08,12.59-.17.67-.19,2.01-1.13,1.85l9.95-185.28ZM187.57,532.41l-16.36-2.5-.97,1.49-24.66,327.01,19.5-2.68,1.1-2.37c2.62-41.77,5.24-83.53,8.08-125.28,2.78-40.84,5.06-81.82,8-122.67,1.75-24.32,5.6-48.56,5.32-73ZM646.91,755.06l-8.8-118.19-.8-1.2-39.31-4.51c-1.72.57-1.18,8.82-1.12,10.93.31,9.92,1.8,19.99,1.33,30l4.7,94.31,44-11.34Z"/>
    <path class="cls-1" d="M749.57,807.06c-26.01,6.89-50.9,17.29-76.32,26.02-39.13,13.44-78.68,26.78-119.01,36.33-12.03,2.85-31.67,7.98-43.49,5.48-4.61-.98-8.83-3.99-13.85-3.15l.39-3.41c25.2-6.87,50.6-13.09,75.76-20.11,52.19-14.56,106.64-34.2,160.3-41.7,3.47-.48,12.28-2.22,15.11-1.33.88.28,1.29.96,1.11,1.88Z"/>
    <path class="cls-1" d="M301.57,867.75c-.2,1.18-1.35,1.15-2.23,1.43-13.47,4.17-31.46,6.81-45.64,9.69-49.83,10.13-101.66,20.67-151.91,28.09-3.33.49-23.67,3.75-24.89,2.77-.38-1.53.29-1.1.84-1.52,8.89-6.92,44-13.2,56.37-15.6,39.88-7.74,81.86-15.99,121.9-22.1,8.65-1.32,35.1-5.94,42-4.22,1.29.32,2.27,1.21,3.55,1.45Z"/>
    <path class="cls-1" d="M709.57,795.73v3.33s-196,46.68-196,46.68c.16-2.76-1.85-8.16-.07-10.4,23.89-6.54,48.4-12.08,72.73-17.28,40.84-8.73,81.97-16.45,123.34-22.33Z"/>
    <path class="cls-1" d="M309.58,880.4l-.09,5.58-1.04.96-191.98,36.07-5.56-1.29c-.24-1.17.29-1.34,1.14-1.85,2.36-1.4,9.64-3.08,12.71-3.95,43.56-12.38,92.59-21.8,137.35-29.31,5.69-.96,45.77-7.91,47.46-6.21Z"/>
    <path class="cls-1" d="M586.9,690.41l2,21-.67,5c-1.53.31-1.07-.16-1.5-.85-2.28-3.64-3.81-20.92-1.74-24.07.53-.8.83-1.3,1.91-1.08Z"/>
    <path class="cls-1" d="M280.82,788.98c-.86.66-3.66.79-3.94-.35-.6-2.39.72-5.17.69-7.22-.3-21.31-2.61-42.15-2.03-64.03.04-1.42.65-2.71.69-3.98,1.52-49.8,4.82-99.6,6.7-149.3,1.26-33.27.35-71.86,6.17-104.5,3.53-19.84,6.73-2.72,7.17,5.78.85,16.71-1.88,38.07-2.67,55.39-2.87,63.06-5.23,126.14-8.7,189.3-1.07,19.52-3.2,39.14-4.02,58.65-.28,6.73.34,13.54-.06,20.27Z"/>
    <path class="cls-1" d="M603.92,685.07c1.12-.27,1.35.89,1.65,1.67,1.87,4.83,4.34,21.26,4.62,26.75.17,3.19-2.55,2.02-3.59.22-.89-1.52-1.75-7.08-2.15-9.18-.81-4.3-2.16-11.64-2.09-15.8.01-.89.78-3.46,1.56-3.65Z"/>
  </g>
</svg>